<?xml version="1.0" standalone="no"?>
<!DOCTYPE svg PUBLIC "-//W3C//DTD SVG 20010904//EN"
 "http://www.w3.org/TR/2001/REC-SVG-20010904/DTD/svg10.dtd">
<svg version="1.0" xmlns="http://www.w3.org/2000/svg"
 width="260.000000pt" height="260.000000pt" viewBox="0 0 260.000000 260.000000"
 preserveAspectRatio="xMidYMid meet">
<metadata>
Created by potrace 1.11, written by Peter Selinger 2001-2013
</metadata>
<g transform="translate(0.000000,260.000000) scale(0.100000,-0.100000)"
fill="#000000" stroke="none">
<path d="M1130 2395 c-382 -60 -719 -306 -894 -652 -50 -101 -45 -102 16 -3
98 159 272 313 439 389 140 63 383 114 544 114 286 -1 497 -130 621 -378 63
-128 176 -578 177 -705 0 -235 -130 -442 -400 -637 -114 -82 -364 -207 -468
-234 -85 -21 -214 -29 -305 -17 -80 11 -31 -8 105 -39 522 -119 937 -30 1147
246 27 36 78 125 113 196 35 72 90 180 123 241 123 228 170 396 159 564 -8
113 -28 187 -81 295 -77 155 -194 277 -378 391 -332 206 -615 276 -918 229z"/>
<path d="M870 1939 c-189 -31 -356 -98 -465 -186 -131 -106 -232 -263 -277
-430 -29 -109 -29 -287 0 -396 37 -136 102 -246 214 -362 55 -56 107 -102 116
-101 9 0 17 -4 17 -11 0 -7 7 -18 15 -25 12 -11 12 -11 1 5 -18 23 -14 22 61
-13 186 -87 368 -75 592 37 332 167 516 389 516 624 0 31 -13 110 -30 176 -16
65 -41 164 -54 220 -74 306 -277 475 -566 472 -47 -1 -110 -5 -140 -10z"/>
<path d="M540 396 c0 -3 9 -10 20 -16 11 -6 20 -8 20 -6 0 3 -9 10 -20 16 -11
6 -20 8 -20 6z"/>
<path d="M778 283 c7 -3 16 -2 19 1 4 3 -2 6 -13 5 -11 0 -14 -3 -6 -6z"/>
</g>
</svg>
