<svg id="Calque_1" data-name="Calque 1" xmlns="http://www.w3.org/2000/svg" viewBox="0 0 1833 1699"><defs><style>.cls-1{fill:#ffc258;opacity:0.05;}</style></defs><title>bg_home_topscreen</title><g id="ideactifs"><g id="First-Page"><g id="Background"><path id="Fill-18" class="cls-1" d="M1307.2,90.55C613.7-238.74-166,381.65,31,1120.5c27.27,102.24,73.15,201.23,145.65,288,85.09,101.79,200.77,173.62,327.93,212.65,252.06,77.37,879.78,212.46,1099.3-273.15,38-84.13,80.19-166.33,125.65-246.74,87.91-155.47,189.09-439.5-19.3-717-47.73-63.53-107.21-117.26-173.07-162A1751.77,1751.77,0,0,0,1307.2,90.55Z"/><path id="Fill-18-2" data-name="Fill-18" class="cls-1" d="M1402.75,351.45a1256.69,1256.69,0,0,0-165-94.49C740.27,20.71,180.94,465.82,322.22,995.94c19.56,73.36,52.48,144.38,104.49,206.6,61,73,144,124.57,235.26,152.58,180.83,55.51,631.15,152.43,788.64-196,27.28-60.36,57.53-119.34,90.14-177,63.07-111.55,135.66-315.33-13.84-514.43-34.24-45.58-76.91-84.13-124.16-116.22"/><path id="Fill-18-3" data-name="Fill-18" class="cls-1" d="M1272.06,532.62a887.84,887.84,0,0,0-116.54-66.74C804,299,408.89,613.41,508.7,987.84c13.82,51.81,37.07,102,73.82,145.92,43.12,51.59,101.76,88,166.2,107.77,127.75,39.21,445.89,107.67,557.15-138.42,19.28-42.63,40.64-84.29,63.68-125,44.55-78.79,95.84-222.73-9.78-363.35-24.19-32.2-54.33-59.43-87.71-82.09"/><path id="Fill-18-4" data-name="Fill-18" class="cls-1" d="M1143.55,662.45a523.7,523.7,0,0,0-68.75-39.38c-207.33-98.46-440.42,87-381.54,308,8.15,30.57,21.87,60.17,43.54,86.1,25.44,30.44,60,51.91,98,63.58,75.36,23.13,263,63.52,328.65-81.67,11.37-25.15,24-49.73,37.57-73.78,26.28-46.49,56.53-131.41-5.77-214.38-14.27-19-32.05-35.06-51.74-48.43"/></g></g></g></svg>