<svg id="Calque_1" data-name="Calque 1" xmlns="http://www.w3.org/2000/svg" viewBox="0 0 400 400"><defs><style>.cls-1{fill:#1913c1;}.cls-2{fill:#ffc258;}.cls-3{fill:#ff384c;}</style></defs><title>bubles_full</title><path id="Fill-18" class="cls-1" d="M325,51a367.61,367.61,0,0,0-48.22-27.54C131.37-45.45-32.13,84.3,9.17,238.83c5.72,21.38,15.34,42.09,30.54,60.22,17.84,21.29,42.1,36.31,68.77,44.48C161.35,359.72,293,388,339,286.41c8-17.6,16.82-34.79,26.35-51.61,18.44-32.52,39.65-91.92-4-150A151.17,151.17,0,0,0,325,51"/><path id="Fill-19" class="cls-2" d="M166.38,33.83a301.72,301.72,0,0,0-45.53,8.82C-8.68,78.42-40.74,252.27,70,329.18c15.34,10.64,32.75,18.69,52.3,22,22.93,3.89,46.47.2,67.78-9.23,42.23-18.71,140.79-73.06,114.17-164-4.61-15.75-8.46-31.71-11.66-47.82C286.42,99,267.25,49,207.85,35.67a124.68,124.68,0,0,0-41.47-1.84"/><path id="Fill-20" class="cls-3" d="M135.92,76.29a249.49,249.49,0,0,0-37.06,7.05C-6.57,112-32.66,251,57.51,312.57c12.48,8.51,26.66,15,42.57,17.6,18.66,3.11,37.83.17,55.17-7.39,34.37-15,114.59-58.45,92.92-131.18-3.75-12.6-6.88-25.37-9.49-38.25-5-24.92-20.65-64.93-69-75.6a103.14,103.14,0,0,0-33.76-1.47"/></svg>