<?xml version="1.0" encoding="UTF-8" standalone="no"?>
<svg width="140px" height="29px" viewBox="0 0 140 29" version="1.1" xmlns="http://www.w3.org/2000/svg" xmlns:xlink="http://www.w3.org/1999/xlink">
    <!-- Generator: Sketch 48.2 (47327) - http://www.bohemiancoding.com/sketch -->
    <title>bullets</title>
    <desc>Created with Sketch.</desc>
    <defs></defs>
    <g id="Opération" stroke="none" stroke-width="1" fill="none" fill-rule="evenodd" transform="translate(-653.000000, -1912.000000)">
        <g id="bullets" transform="translate(653.000000, 1912.000000)">
            <path d="M25.9964692,3.79334898 C25.0804531,3.16546361 23.73839,2.32695264 22.107606,1.54555006 C10.3789292,-4.07502186 -2.80680961,6.51428793 0.523880129,19.1257263 C0.985099608,20.8709099 1.76103715,22.5605203 2.98718363,24.0407332 C4.42620064,25.7782409 6.38271325,27.0042293 8.53313378,27.670494 C12.7960496,28.991049 23.4120497,31.2968774 27.1247442,23.0081765 C27.7679435,21.5721765 28.4808763,20.1690293 29.2497793,18.7965854 C30.7365087,16.142887 32.4477308,11.2948137 28.923439,6.55819385 C28.1163049,5.47374831 27.1103693,4.55663653 25.9964692,3.79334898" id="Fill-18" fill="#1913C1"></path>
            <path d="M76.3702679,2.07457218 C75.4401399,2.18028259 74.1224331,2.38740125 72.6515825,2.79180505 C62.0721751,5.69976336 59.4541158,19.8339219 68.5014759,26.0862013 C69.7540281,26.9515517 71.1764694,27.6057885 72.7727579,27.8755959 C74.6451925,28.1918053 76.5681675,27.89219 78.308466,27.1248676 C81.7573991,25.6037439 89.8073453,21.1848027 87.6328856,13.7945999 C87.2562674,12.5143976 86.9420638,11.216372 86.6802274,9.90697643 C86.1748223,7.37515053 84.6086754,3.30898711 79.7576999,2.22422616 C78.6470265,1.97592961 77.5010357,1.94612173 76.3702679,2.07457218" id="Fill-19" fill="#FFC258"></path>
            <path d="M130.696385,6.0602196 C129.952485,6.14558555 128.898169,6.31259239 127.721394,6.63915596 C119.257627,8.98842692 117.163314,20.4041827 124.40126,25.4544323 C125.40318,26.1531914 126.541267,26.6818395 127.818265,26.8994451 C129.316423,27.1549221 130.855096,26.9131036 132.246938,26.2931916 C135.005948,25.0648532 141.445771,21.4953148 139.706348,15.5262171 C139.405072,14.4922026 139.153754,13.4439087 138.944475,12.3866126 C138.53993,10.3415548 137.286998,7.05698348 133.40635,6.18128404 C132.517752,5.98044124 131.600823,5.95653877 130.696385,6.0602196" id="Fill-20" fill="#FF384C"></path>
        </g>
    </g>
</svg>