<?xml version="1.0" encoding="UTF-8"?>
<svg width="376px" height="87px" viewBox="0 0 376 87" version="1.1" xmlns="http://www.w3.org/2000/svg" xmlns:xlink="http://www.w3.org/1999/xlink">
    <!-- Generator: Sketch 48.2 (47327) - http://www.bohemiancoding.com/sketch -->
    <title>Page 1</title>
    <desc>Created with Sketch.</desc>
    <defs></defs>
    <g id="ideactifs" stroke="none" stroke-width="1" fill="none" fill-rule="evenodd">
        <g id="First-Page" transform="translate(-1646.000000, -1754.000000)">
            <g id="Page-1" transform="translate(1647.000000, 1755.000000)">
                <path d="M1.88899771,83 L8.99967352,83 L8.99967352,29.8222804 L1.88899771,29.8222804 L1.88899771,83 Z M0,10.2371718 C0,7.16221955 2.55517467,5 5.44433562,5 C8.5561541,5 11,7.16221955 11,10.2371718 C11,13.1980324 8.5561541,15.360252 5.44433562,15.360252 C2.55517467,15.360252 0,13.1980324 0,10.2371718 Z" id="Fill-1" fill="#000000"></path>
                <path d="M1.88899771,83 L8.99967352,83 L8.99967352,29.8222804 L1.88899771,29.8222804 L1.88899771,83 Z M0,10.2371718 C0,7.16221955 2.55517467,5 5.44433562,5 C8.5561541,5 11,7.16221955 11,10.2371718 C11,13.1980324 8.5561541,15.360252 5.44433562,15.360252 C2.55517467,15.360252 0,13.1980324 0,10.2371718 Z" id="Stroke-3" stroke="#000000" stroke-width="2"></path>
                <path d="M69.6412371,57.202507 C69.6412371,44.2235374 59.5220089,36.0680592 48.8276451,36.0680592 C37.5590748,36.0680592 28.3596921,45.0263698 28.3596921,56.8572427 C28.3596921,68.8041318 37.5590748,77.9935468 48.8276451,77.9935468 C59.9819316,77.9935468 69.6412371,69.6088205 69.6412371,57.202507 Z M77,0 L77,83.8519032 L69.6412371,83.8519032 L69.6412371,73.3983752 C65.6171459,80.7500928 57.2233247,85 48.2534386,85 C33.3045577,85 21,73.2832871 21,56.9723308 C21,40.6613745 33.1893448,29.061606 48.2534386,29.061606 C57.3376085,29.061606 65.6171459,33.310585 69.6412371,40.5472145 L69.6412371,0 L77,0 Z" id="Fill-4" fill="#000000"></path>
                <path d="M69.6412371,57.202507 C69.6412371,44.2235374 59.5220089,36.0680592 48.8276451,36.0680592 C37.5590748,36.0680592 28.3596921,45.0263698 28.3596921,56.8572427 C28.3596921,68.8041318 37.5590748,77.9935468 48.8276451,77.9935468 C59.9819316,77.9935468 69.6412371,69.6088205 69.6412371,57.202507 Z M77,0 L77,83.8519032 L69.6412371,83.8519032 L69.6412371,73.3983752 C65.6171459,80.7500928 57.2233247,85 48.2534386,85 C33.3045577,85 21,73.2832871 21,56.9723308 C21,40.6613745 33.1893448,29.061606 48.2534386,29.061606 C57.3376085,29.061606 65.6171459,33.310585 69.6412371,40.5472145 L69.6412371,0 L77,0 Z" id="Stroke-5" stroke="#000000" stroke-width="2"></path>
                <path d="M133.865437,53.7219512 C132.845168,42.5674797 125.258576,36.0141696 114.953402,36.0141696 C104.534763,36.0141696 96.8337909,42.2227642 95.4740422,53.7219512 L133.865437,53.7219512 Z M140.886535,60.0466899 L95.3614924,60.0466899 C96.6068611,71.5458769 104.534763,77.9858304 115.180332,77.9858304 C122.426529,77.9858304 128.882133,74.6501742 132.393139,68.786295 L138.620897,71.5458769 C133.978902,80.1711963 124.919097,85 114.953402,85 C100.004403,85 88,73.8464576 88,56.8262485 C88,39.8078978 100.004403,29 114.953402,29 C130.014951,29 141,39.8078978 141,56.8262485 C141,57.8622532 141,59.0116144 140.886535,60.0466899 Z" id="Fill-6" fill="#000000"></path>
                <path d="M133.865437,53.7219512 C132.845168,42.5674797 125.258576,36.0141696 114.953402,36.0141696 C104.534763,36.0141696 96.8337909,42.2227642 95.4740422,53.7219512 L133.865437,53.7219512 Z M140.886535,60.0466899 L95.3614924,60.0466899 C96.6068611,71.5458769 104.534763,77.9858304 115.180332,77.9858304 C122.426529,77.9858304 128.882133,74.6501742 132.393139,68.786295 L138.620897,71.5458769 C133.978902,80.1711963 124.919097,85 114.953402,85 C100.004403,85 88,73.8464576 88,56.8262485 C88,39.8078978 100.004403,29 114.953402,29 C130.014951,29 141,39.8078978 141,56.8262485 C141,57.8622532 141,59.0116144 140.886535,60.0466899 Z" id="Stroke-7" stroke="#000000" stroke-width="2"></path>
                <path d="M201.64043,57.1718931 C201.64043,44.1786295 191.52137,36.0141696 180.827183,36.0141696 C169.5588,36.0141696 160.35957,44.9823461 160.35957,56.8262485 C160.35957,68.786295 169.5588,77.9858304 180.827183,77.9858304 C191.981285,77.9858304 201.64043,69.5918699 201.64043,57.1718931 Z M209,30.1493612 L209,83.8506388 L201.64043,83.8506388 L201.64043,73.3855981 C197.616406,80.7454123 189.222724,85 180.252986,85 C165.304354,85 153,73.2703833 153,56.9414634 C153,40.6125436 165.189143,29 180.252986,29 C189.337935,29 197.616406,33.2536585 201.64043,40.4982578 L201.64043,30.1493612 L209,30.1493612 Z" id="Fill-8" fill="#000000"></path>
                <path d="M201.64043,57.1718931 C201.64043,44.1786295 191.52137,36.0141696 180.827183,36.0141696 C169.5588,36.0141696 160.35957,44.9823461 160.35957,56.8262485 C160.35957,68.786295 169.5588,77.9858304 180.827183,77.9858304 C191.981285,77.9858304 201.64043,69.5918699 201.64043,57.1718931 Z M209,30.1493612 L209,83.8506388 L201.64043,83.8506388 L201.64043,73.3855981 C197.616406,80.7454123 189.222724,85 180.252986,85 C165.304354,85 153,73.2703833 153,56.9414634 C153,40.6125436 165.189143,29 180.252986,29 C189.337935,29 197.616406,33.2536585 201.64043,40.4982578 L201.64043,30.1493612 L209,30.1493612 Z" id="Stroke-9" stroke="#000000" stroke-width="2"></path>
                <path d="M220,56.9990689 C220,39.9465634 232.910107,29 247.973423,29 C255.56136,29 262.242441,31.8797925 267,36.3740565 L262.469383,41.4437203 C258.844707,38.1021182 253.86295,36.0295614 248.199451,36.0295614 C236.648255,36.0295614 227.247522,44.3253749 227.247522,56.9990689 C227.247522,69.5601037 236.648255,77.9713697 248.199451,77.9713697 C253.86295,77.9713697 258.844707,76.0124032 262.469383,72.6717321 L267,77.6250125 C262.242441,82.2347288 255.56136,85 247.973423,85 C232.910107,85 220,74.0534366 220,56.9990689" id="Fill-10" fill="#000000"></path>
                <path d="M220,56.9990689 C220,39.9465634 232.910107,29 247.973423,29 C255.56136,29 262.242441,31.8797925 267,36.3740565 L262.469383,41.4437203 C258.844707,38.1021182 253.86295,36.0295614 248.199451,36.0295614 C236.648255,36.0295614 227.247522,44.3253749 227.247522,56.9990689 C227.247522,69.5601037 236.648255,77.9713697 248.199451,77.9713697 C253.86295,77.9713697 258.844707,76.0124032 262.469383,72.6717321 L267,77.6250125 C262.242441,82.2347288 255.56136,85 247.973423,85 C232.910107,85 220,74.0534366 220,56.9990689 Z" id="Stroke-11" stroke="#000000" stroke-width="2"></path>
                <polygon id="Fill-12" fill="#000000" points="306 36.6789581 293.831744 36.6789581 293.831744 84 286.666973 84 286.666973 36.6789581 277 36.6789581 277 30.3626802 286.666973 30.3626802 286.666973 9 293.831744 9 293.831744 30.3626802 306 30.3626802"></polygon>
                <polygon id="Stroke-13" stroke="#000000" stroke-width="2" points="306 36.6789581 293.831744 36.6789581 293.831744 84 286.666973 84 286.666973 36.6789581 277 36.6789581 277 30.3626802 286.666973 30.3626802 286.666973 9 293.831744 9 293.831744 30.3626802 306 30.3626802"></polygon>
                <path d="M318.888998,83 L326.000571,83 L326.000571,29.8222804 L318.888998,29.8222804 L318.888998,83 Z M317,10.2371718 C317,7.16221955 319.555175,5 322.443438,5 C325.555256,5 328,7.16221955 328,10.2371718 C328,13.1980324 325.555256,15.360252 322.443438,15.360252 C319.555175,15.360252 317,13.1980324 317,10.2371718 Z" id="Fill-14" fill="#000000"></path>
                <path d="M318.888998,83 L326.000571,83 L326.000571,29.8222804 L318.888998,29.8222804 L318.888998,83 Z M317,10.2371718 C317,7.16221955 319.555175,5 322.443438,5 C325.555256,5 328,7.16221955 328,10.2371718 C328,13.1980324 325.555256,15.360252 322.443438,15.360252 C319.555175,15.360252 317,13.1980324 317,10.2371718 Z" id="Stroke-15" stroke="#000000" stroke-width="2"></path>
                <path d="M356.961885,22.1719188 L356.961885,29.9027838 L370.663078,29.9027838 L370.663078,36.1554596 L356.961885,36.1554596 L356.961885,83 L349.593121,83 L349.593121,36.1554596 L339,36.1554596 L339,29.9027838 L349.593121,29.9027838 L349.593121,22.9665947 C349.593121,9.66472965 354.888286,0 368.935545,0 L374,0 L374,6.93527035 L369.970949,6.93527035 C359.840178,6.93527035 356.961885,13.6445404 356.961885,22.1719188" id="Fill-16" fill="#000000"></path>
                <path d="M356.961885,22.1719188 L356.961885,29.9027838 L370.663078,29.9027838 L370.663078,36.1554596 L356.961885,36.1554596 L356.961885,83 L349.593121,83 L349.593121,36.1554596 L339,36.1554596 L339,29.9027838 L349.593121,29.9027838 L349.593121,22.9665947 C349.593121,9.66472965 354.888286,0 368.935545,0 L374,0 L374,6.93527035 L369.970949,6.93527035 C359.840178,6.93527035 356.961885,13.6445404 356.961885,22.1719188 Z" id="Stroke-17" stroke="#000000" stroke-width="2"></path>
            </g>
        </g>
    </g>
</svg>