<svg id="Calque_1" data-name="Calque 1" xmlns="http://www.w3.org/2000/svg" viewBox="0 0 376 87"><defs><style>.cls-1{fill:none;stroke:#000;stroke-width:2px;}</style></defs><title>home_topscreen_logo</title><g id="ideactifs"><g id="First-Page"><g id="Page-1"><path id="Fill-1" d="M2.89,84H10V30.82H2.89ZM1,11.24A5.3,5.3,0,0,1,6.44,6,5.26,5.26,0,0,1,12,11.24a5.24,5.24,0,0,1-5.56,5.12A5.28,5.28,0,0,1,1,11.24Z"/><path id="Stroke-3" class="cls-1" d="M2.89,84H10V30.82H2.89ZM1,11.24A5.3,5.3,0,0,1,6.44,6,5.26,5.26,0,0,1,12,11.24a5.24,5.24,0,0,1-5.56,5.12A5.28,5.28,0,0,1,1,11.24Z"/><path id="Fill-4" d="M70.64,58.2A20.65,20.65,0,0,0,49.83,37.07,20.43,20.43,0,0,0,29.36,57.86C29.36,69.8,38.56,79,49.83,79S70.64,70.61,70.64,58.2ZM78,1V84.85H70.64V74.4C66.62,81.75,58.22,86,49.25,86,34.3,86,22,74.28,22,58S34.19,30.06,49.25,30.06c9.08,0,17.36,4.25,21.39,11.49V1Z"/><path id="Stroke-5" class="cls-1" d="M70.64,58.2A20.65,20.65,0,0,0,49.83,37.07,20.43,20.43,0,0,0,29.36,57.86C29.36,69.8,38.56,79,49.83,79S70.64,70.61,70.64,58.2ZM78,1V84.85H70.64V74.4C66.62,81.75,58.22,86,49.25,86,34.3,86,22,74.28,22,58S34.19,30.06,49.25,30.06c9.08,0,17.36,4.25,21.39,11.49V1Z"/><path id="Fill-6" d="M134.87,54.72C133.85,43.57,126.26,37,116,37S97.83,43.22,96.47,54.72Zm7,6.32H96.36C97.61,72.55,105.53,79,116.18,79c7.25,0,13.7-3.34,17.21-9.2l6.23,2.76C135,81.17,125.92,86,116,86,101,86,89,74.85,89,57.83S101,30,116,30s26,10.81,26,27.83A30.54,30.54,0,0,1,141.89,61Z"/><path id="Stroke-7" class="cls-1" d="M134.87,54.72C133.85,43.57,126.26,37,116,37S97.83,43.22,96.47,54.72Zm7,6.32H96.36C97.61,72.55,105.53,79,116.18,79c7.25,0,13.7-3.34,17.21-9.2l6.23,2.76C135,81.17,125.92,86,116,86,101,86,89,74.85,89,57.83S101,30,116,30s26,10.81,26,27.83A30.54,30.54,0,0,1,141.89,61Z"/><path id="Fill-8" d="M202.64,58.17A20.66,20.66,0,0,0,181.83,37a20.44,20.44,0,0,0-20.47,20.81c0,12,9.2,21.16,20.47,21.16A20.44,20.44,0,0,0,202.64,58.17Zm7.36-27v53.7h-7.36V74.39c-4,7.36-12.42,11.61-21.39,11.61C166.3,86,154,74.27,154,57.94S166.19,30,181.25,30c9.08,0,17.36,4.25,21.39,11.5V31.15Z"/><path id="Stroke-9" class="cls-1" d="M202.64,58.17A20.66,20.66,0,0,0,181.83,37a20.44,20.44,0,0,0-20.47,20.81c0,12,9.2,21.16,20.47,21.16A20.44,20.44,0,0,0,202.64,58.17Zm7.36-27v53.7h-7.36V74.39c-4,7.36-12.42,11.61-21.39,11.61C166.3,86,154,74.27,154,57.94S166.19,30,181.25,30c9.08,0,17.36,4.25,21.39,11.5V31.15Z"/><path id="Fill-10" d="M221,58c0-17.05,12.91-28,28-28a27.57,27.57,0,0,1,19,7.37l-4.53,5.07A20.88,20.88,0,0,0,249.2,37c-11.55,0-21,8.3-21,21s9.4,21,21,21a20.8,20.8,0,0,0,14.27-5.3l4.53,5A27.05,27.05,0,0,1,249,86c-15.06,0-28-10.95-28-28"/><path id="Stroke-11" class="cls-1" d="M221,58c0-17.05,12.91-28,28-28a27.57,27.57,0,0,1,19,7.37l-4.53,5.07A20.88,20.88,0,0,0,249.2,37c-11.55,0-21,8.3-21,21s9.4,21,21,21a20.8,20.8,0,0,0,14.27-5.3l4.53,5A27.05,27.05,0,0,1,249,86C233.91,86,221,75.05,221,58Z"/><polygon id="Fill-12" points="307 37.68 294.83 37.68 294.83 85 287.67 85 287.67 37.68 278 37.68 278 31.36 287.67 31.36 287.67 10 294.83 10 294.83 31.36 307 31.36 307 37.68"/><polygon id="Stroke-13" class="cls-1" points="307 37.68 294.83 37.68 294.83 85 287.67 85 287.67 37.68 278 37.68 278 31.36 287.67 31.36 287.67 10 294.83 10 294.83 31.36 307 31.36 307 37.68"/><path id="Fill-14" d="M319.89,84H327V30.82h-7.11ZM318,11.24a5.51,5.51,0,0,1,11,0,5.51,5.51,0,0,1-11,0Z"/><path id="Stroke-15" class="cls-1" d="M319.89,84H327V30.82h-7.11ZM318,11.24a5.51,5.51,0,0,1,11,0,5.51,5.51,0,0,1-11,0Z"/><path id="Fill-16" d="M358,23.17V30.9h13.7v6.25H358V84h-7.37V37.16H340V30.9h10.59V24c0-13.3,5.3-23,19.34-23H375V7.94h-4c-10.13,0-13,6.71-13,15.24"/><path id="Stroke-17" class="cls-1" d="M358,23.17V30.9h13.7v6.25H358V84h-7.37V37.16H340V30.9h10.59V24c0-13.3,5.3-23,19.34-23H375V7.94h-4C360.84,7.94,358,14.64,358,23.17Z"/></g></g></g></svg>