<svg id="Calque_1" data-name="Calque 1" xmlns="http://www.w3.org/2000/svg" viewBox="0 0 440 440"><defs><style>.cls-1{fill:#ff384c;}</style></defs><title>iconWhite_yt_hover</title><path class="cls-1" d="M343.83,180c-1.23-10.8-3.55-21.4-9.46-30.8-4-6.45-9.54-11-17.43-11.75-8.37-.76-16.76-1.67-25.15-1.76-37.09-.38-74.18-.72-111.27-.59-16.67.06-33.33,1.13-50,2-9.47.47-17.39,4.25-21.39,13.25-3.26,7.36-6.57,15-7.81,22.89a304.69,304.69,0,0,0-.76,92.81,108.91,108.91,0,0,0,8,26.4,22.09,22.09,0,0,0,17.92,13.72,192.13,192.13,0,0,0,19.59,1.53c25.62.68,51.29,1.07,82,1.68,23.49-.68,52-1.36,80.49-2.36,17.47-.61,25.79-7.18,31.1-23.89a78,78,0,0,0,2.46-9.51C347.81,242.46,347.5,211.2,343.83,180ZM197.74,266.56V176.82l69.46,45Z"/></svg>