<svg id="Calque_1" data-name="Calque 1" xmlns="http://www.w3.org/2000/svg" viewBox="0 0 440 440"><defs><style>.cls-1{fill:#fff;}</style></defs><title>iconWhite_pt</title><path class="cls-1" d="M267.69,292.88c-17.15,2.5-33-.34-46.23-12.39a84.64,84.64,0,0,1-5.93-6.66c-.89,3.42-1.74,6.62-2.56,9.83-2.94,11.47-5.69,23-8.84,34.42-4.79,17.33-13.93,32.49-24.26,47a71.83,71.83,0,0,1-4.53,6,15.69,15.69,0,0,1-3.27,2.23c-.66-1.13-1.78-2.22-1.9-3.41q-1.27-13.15-2.19-26.33c-1.4-20.45,4.08-39.9,8.73-59.47,4.92-20.72,9.86-41.44,14.66-62.18a10.91,10.91,0,0,0-.47-5.57c-5.45-16.53-6.26-32.91,2-48.78,5.28-10.16,13.32-17,25.37-17.3s20.56,7.31,22.18,19.42c1.28,9.56-1.16,18.59-3.67,27.59-3.12,11.2-6.37,22.36-9.86,33.45-6.89,21.87,11.89,39.14,33.84,33.6,11.52-2.91,19.7-10.35,26.2-19.83,9.38-13.66,14-29.12,16.27-45.33,1.63-11.45,2.56-23,.39-34.45-4.72-24.89-19.57-40.85-43.92-47.35C236.11,111,213.15,113.26,192,126c-21.5,13-33.35,32.51-36.64,57.28-1.56,11.75-.94,23.29,4.7,34a63.29,63.29,0,0,0,6.22,9.15,8.56,8.56,0,0,1,1.75,8.2c-1.23,4.28-2.19,8.64-3.36,12.93-1.33,4.86-4.24,6.34-8.85,4.37-13.17-5.61-22.06-15.55-26.93-28.71-11.77-31.76-7.15-61.73,11.9-89.31,18.12-26.25,44-40.51,75.07-45.73,22.92-3.86,45.62-3,67.4,5.85,31.75,12.95,52.47,35.71,60,69.61,2.82,12.71,2,25.55.34,38.36-2.6,20.12-8.73,39-20.51,55.76C309.5,277.08,291.36,289.43,267.69,292.88Z"/></svg>