<svg id="Calque_1" data-name="Calque 1" xmlns="http://www.w3.org/2000/svg" viewBox="0 0 440 440"><defs><style>.cls-1{fill:#1913c1;}</style></defs><title>icone_insta_hover</title><path class="cls-1" d="M220,13.7C106.1,13.7,13.7,106.1,13.7,220S106.1,426.3,220,426.3,426.3,333.9,426.3,220,333.9,13.7,220,13.7ZM333.94,220.32v45.3c-.07,30.06-17.58,55.12-46,64.68a73.54,73.54,0,0,1-22.21,3.47c-30.41.38-60.83.19-91.25.15-32.74,0-59.26-20.92-66.72-52.76a70.87,70.87,0,0,1-1.6-15.71c-.15-30.31-.1-60.62-.06-90.93,0-32.79,20.79-59.2,52.69-66.78a67,67,0,0,1,15.06-1.62q46.11-.22,92.22,0c32.41.09,59.1,21.33,66.29,52.91a75.66,75.66,0,0,1,1.55,15.72C334.06,189.9,333.94,205.11,333.94,220.32Z"/><path class="cls-1" d="M220,178.56a41.42,41.42,0,1,0,41.41,41.75q0-.16,0-.31h0A41.42,41.42,0,0,0,220,178.56Z"/><path class="cls-1" d="M312.16,163.43c-4.88-21.91-23-36.51-45.54-36.68-15.55-.08-31.08,0-46.62,0-15.1,0-30.2-.07-45.3,0a54.13,54.13,0,0,0-11.23,1c-22,4.88-36.62,23.1-36.68,45.85q-.13,46.27,0,92.54a48.2,48.2,0,0,0,1.12,10.57c5,21.91,23.12,36.31,45.77,36.37q46.27.13,92.54,0a48.11,48.11,0,0,0,10.26-1c22-4.9,36.61-23.11,36.68-45.86q.13-46.27,0-92.54A48.12,48.12,0,0,0,312.16,163.43ZM219.85,282.08c-34.11-.11-62.18-28.27-62-62.36a62.14,62.14,0,1,1,62,62.36Zm61.27-113.9a9.37,9.37,0,1,1,.11-18.74h.17a9.37,9.37,0,0,1-.27,18.74Z"/></svg>