<svg id="Calque_1" data-name="Calque 1" xmlns="http://www.w3.org/2000/svg" viewBox="0 0 440 440"><defs><style>.cls-1{fill:#fff;}.cls-2{fill:#ff384c;}</style></defs><title>icon_yt_over</title><rect class="cls-1" x="77" y="114" width="283" height="210"/><polygon class="cls-2" points="197.74 266.56 267.2 221.82 197.74 176.82 197.74 266.56"/><path class="cls-2" d="M220,13.7C106.1,13.7,13.7,106.1,13.7,220S106.1,426.3,220,426.3,426.3,333.9,426.3,220,333.9,13.7,220,13.7ZM342.1,273.57a78,78,0,0,1-2.46,9.51c-5.31,16.71-13.63,23.28-31.1,23.89-28.49,1-57,1.68-80.49,2.36-30.71-.61-56.38-1-82-1.68a192.13,192.13,0,0,1-19.59-1.53,22.09,22.09,0,0,1-17.92-13.72A108.91,108.91,0,0,1,100.56,266a304.69,304.69,0,0,1,.76-92.81c1.24-7.89,4.55-15.53,7.81-22.89,4-9,11.92-12.78,21.39-13.25,16.67-.87,33.33-1.94,50-2,37.09-.13,74.18.21,111.27.59,8.39.09,16.78,1,25.15,1.76,7.89.75,13.38,5.3,17.43,11.75,5.91,9.4,8.23,20,9.46,30.8C347.5,211.2,347.81,242.46,342.1,273.57Z"/></svg>