<svg id="Calque_1" data-name="Calque 1" xmlns="http://www.w3.org/2000/svg" viewBox="0 0 440 440"><defs><style>.cls-1{fill:#fff;}</style></defs><title>iconWhite_yt</title><path class="cls-1" d="M334.4,149.1c-4-6.4-9.5-11-17.4-11.8-8.4-.8-16.8-1.7-25.1-1.8-37.1-.4-74.2-.7-111.3-.6-16.7.1-33.3,1.1-50,2-9.5.5-17.4,4.3-21.4,13.2-3.3,7.4-6.6,15-7.8,22.9a307.15,307.15,0,0,0-.8,92.8,110.09,110.09,0,0,0,7.9,26.4,22,22,0,0,0,17.9,13.7,182.68,182.68,0,0,0,19.6,1.5c25.7.6,51.3,1.1,82.1,1.7,23.5-.7,52-1.4,80.5-2.4,17.5-.6,25.8-7.2,31.1-23.9,1-3.1,1.8-6.3,2.5-9.5,5.7-31.1,5.4-62.4,1.7-93.6C342.6,169.1,340.3,158.5,334.4,149.1ZM197.7,266.6V176.9l69.5,45Z"/></svg>