<svg id="Calque_1" data-name="Calque 1" xmlns="http://www.w3.org/2000/svg" xmlns:xlink="http://www.w3.org/1999/xlink" viewBox="0 0 300 300"><defs><style>.cls-1,.cls-2{fill:none;}.cls-1{clip-rule:evenodd;}.cls-3{clip-path:url(#clip-path);}.cls-4{clip-path:url(#clip-path-2);}.cls-5{fill:#9b9b9b;opacity:0.5;}.cls-6{fill:#fcfcfc;}</style><clipPath id="clip-path"><path class="cls-1" d="M249.83,48.87A271.49,271.49,0,0,0,214.2,28.5C106.77-22.42-14,73.53,16.49,187.8c4.22,15.81,11.33,31.12,22.56,44.54,13.18,15.74,31.1,26.85,50.8,32.89,39,12,136.29,32.86,170.3-42.25,5.89-13,12.42-25.73,19.47-38.16,13.62-24,29.29-68-3-110.89a111.72,111.72,0,0,0-26.81-25.05"/></clipPath><clipPath id="clip-path-2"><rect class="cls-2" x="-2895.76" y="-9852.19" width="6103.11" height="11197.5"/></clipPath></defs><title>iconWhite_gotop</title><g class="cls-3"><g class="cls-4"><rect class="cls-5" x="-9.5" y="-6.69" width="326.35" height="305.16"/></g></g><path class="cls-6" d="M188.24,122.26,154.49,88.51a5.5,5.5,0,0,0-7.78,0L113,122.26a5.5,5.5,0,0,0,7.78,7.78L145,105.78V207.5a5.5,5.5,0,0,0,11,0V105.57L180.47,130a5.5,5.5,0,0,0,7.78-7.78Z"/></svg>