<svg id="Calque_1" data-name="Calque 1" xmlns="http://www.w3.org/2000/svg" viewBox="0 0 440 440"><defs><style>.cls-1{fill:#fff;}</style></defs><title>iconWhite_tt</title><path class="cls-1" d="M323.1,156.2A87.34,87.34,0,0,1,302,178c.1,1.8.1,3.6.1,5.5,0,55.9-42.6,120.4-120.4,120.4a120.11,120.11,0,0,1-64.9-19,85.21,85.21,0,0,0,62.6-17.5A42.46,42.46,0,0,1,139.9,238a41.73,41.73,0,0,0,8,.8,40.22,40.22,0,0,0,11.1-1.5,42.38,42.38,0,0,1-33.9-41.5v-.5a41.44,41.44,0,0,0,19.2,5.3,42.12,42.12,0,0,1-18.8-35.2,42.64,42.64,0,0,1,5.7-21.3,120,120,0,0,0,87.2,44.2,43.47,43.47,0,0,1-1.1-9.6,42.37,42.37,0,0,1,73.2-29,84.37,84.37,0,0,0,26.9-10.3,42.55,42.55,0,0,1-18.6,23.4A85.62,85.62,0,0,0,323.1,156.2Z"/></svg>