<svg id="Calque_1" data-name="Calque 1" xmlns="http://www.w3.org/2000/svg" viewBox="0 0 300 300"><defs><style>.cls-1{fill:#ff384c;}.cls-2{fill:#fff;}</style></defs><title>icon_speak</title><circle class="cls-1" cx="146.5" cy="148" r="130.5"/><path class="cls-2" d="M80.61,221.9A5.62,5.62,0,0,1,75,216.27V106.71A16.67,16.67,0,0,1,91.63,90.06H217a16.67,16.67,0,0,1,16.65,16.65v71A16.67,16.67,0,0,1,217,194.33H120L83.93,220.81A5.62,5.62,0,0,1,80.61,221.9Zm11-120.58a5.41,5.41,0,0,0-5.4,5.4v98.45l28.6-21a5.63,5.63,0,0,1,3.33-1.09H217a5.41,5.41,0,0,0,5.4-5.4v-71a5.41,5.41,0,0,0-5.4-5.4Z"/></svg>