<svg id="Calque_1" data-name="Calque 1" xmlns="http://www.w3.org/2000/svg" viewBox="0 0 256.33 55.67"><defs><style>.cls-1{fill:#1913c1;}.cls-2{fill:#ffc258;}.cls-3{fill:#ff384c;}.cls-4{isolation:isolate;}.cls-5{fill:#fff;}</style></defs><title>logoWhite</title><g id="Vision"><g id="First-Page"><g id="Group-9"><g id="Logo"><g id="Group"><path id="Fill-18" class="cls-1" d="M45.28,6.54a51.62,51.62,0,0,0-6.77-3.88C18.08-7-4.89,11.23.91,33A21.81,21.81,0,0,0,5.2,41.45a20.28,20.28,0,0,0,9.66,6.26c7.43,2.28,25.92,6.25,32.39-8,1.12-2.48,2.36-4.9,3.7-7.26,2.59-4.58,5.57-12.93-.57-21.1a21.25,21.25,0,0,0-5.1-4.77"/><path id="Fill-19" class="cls-2" d="M23,4.13a42.32,42.32,0,0,0-6.4,1.24c-18.2,5-22.7,29.5-7.14,40.32a18.18,18.18,0,0,0,7.35,3.1,16.65,16.65,0,0,0,9.52-1.3c5.93-2.63,19.78-10.28,16-23.07-.65-2.22-1.19-4.46-1.64-6.73-.87-4.38-3.56-11.42-11.91-13.3A17.49,17.49,0,0,0,23,4.13"/><path id="Fill-20" class="cls-3" d="M18.72,10.1a35,35,0,0,0-5.21,1C-1.3,15.12-5,34.69,7.7,43.35a14.93,14.93,0,0,0,6,2.48,13.76,13.76,0,0,0,7.75-1c4.83-2.11,16.1-8.22,13.05-18.46-.53-1.77-1-3.57-1.33-5.38-.71-3.51-2.9-9.14-9.69-10.64a14.47,14.47,0,0,0-4.74-.21"/></g><g id="Mag"><g id="Group-13"><g id="Group-12"><g id="ideamag" class="cls-4"><g class="cls-4"><path class="cls-5" d="M76.94,11.92a2.66,2.66,0,1,1-2.83,2.66A2.7,2.7,0,0,1,76.94,11.92Zm2,10.4h-4v21h4Z"/><path class="cls-5" d="M102.41,40.09C101,42.48,98,43.78,95,43.78c-5.76,0-10.62-4.32-10.62-11S89.23,21.87,95,21.87c3.1,0,6,1.21,7.42,3.6V10.89h4.09V43.33h-4.09Zm-7-14.22a6.59,6.59,0,0,0-6.79,6.88,6.89,6.89,0,1,0,13.77,0A6.78,6.78,0,0,0,95.39,25.87Z"/><path class="cls-5" d="M133.1,34.38H116a6.52,6.52,0,0,0,6.79,5.71,6.8,6.8,0,0,0,6-3.24c1.08.45,2.38.9,3.51,1.35a10.43,10.43,0,0,1-9.67,5.58c-6,0-10.75-4.37-10.75-11s4.77-10.89,10.75-10.89,10.44,4.23,10.44,10.89C133.15,33.25,133.15,33.93,133.1,34.38Zm-4-3.19a6.17,6.17,0,0,0-6.39-5.62A6.37,6.37,0,0,0,116,31.18Z"/><path class="cls-5" d="M155,40.09c-1.4,2.39-4.46,3.69-7.38,3.69A10.54,10.54,0,0,1,137,32.8a10.47,10.47,0,0,1,10.67-10.93c2.92,0,6,1.21,7.38,3.6V22.32h4v21h-4Zm-7-14.22a6.63,6.63,0,0,0-6.84,6.88,6.91,6.91,0,1,0,13.81,0A6.78,6.78,0,0,0,148,25.87Z"/><path class="cls-5" d="M184.49,32V43.33H180.4V31.41c0-3.46-1.8-5.53-4.54-5.53-2.92,0-5.85,1.71-5.85,6.12V43.33h-4.09v-21H170v3.15c1.13-2.34,4.09-3.37,5.8-3.51a9.57,9.57,0,0,1,2.29.13,6.7,6.7,0,0,1,5.49,4.09,7.75,7.75,0,0,1,7.29-4.32c5.26,0,8.1,3.42,8.1,9.31V43.33h-4.1V31.45c0-3.46-1.8-5.58-4.81-5.58C186.61,25.83,184.49,28.48,184.49,32Z"/><path class="cls-5" d="M222.2,40.09c-1.39,2.39-4.45,3.69-7.38,3.69a10.54,10.54,0,0,1-10.67-11,10.47,10.47,0,0,1,10.67-10.93c2.92,0,6,1.21,7.38,3.6V22.32h4v21h-4Zm-7-14.22a6.63,6.63,0,0,0-6.84,6.88,6.91,6.91,0,1,0,13.81,0A6.78,6.78,0,0,0,215.18,25.87Z"/><path class="cls-5" d="M242.32,49.95c4.54,0,7.47-2.56,7.47-9.54,0-.18,0-.32,0-.5-1.26,2.47-4.46,3.87-7.38,3.87A10.46,10.46,0,0,1,231.7,32.89c0-6.71,4.9-11,10.66-11,2.92,0,6,1.3,7.38,3.73V22.32h4V40.14c0,9.9-4.54,13.68-11.47,13.68a10.68,10.68,0,0,1-9.5-5.67c.54-.22,2.88-1.53,3.42-1.8A7,7,0,0,0,242.32,49.95Zm.41-24.07a6.76,6.76,0,0,0-6.84,7,6.61,6.61,0,0,0,6.84,6.93,6.84,6.84,0,0,0,7-6.93A6.65,6.65,0,0,0,242.72,25.87Z"/></g></g></g></g></g></g></g></g></g></svg>