<?xml version="1.0" encoding="UTF-8"?>
<svg width="427px" height="440px" viewBox="0 0 427 440" version="1.1" xmlns="http://www.w3.org/2000/svg" xmlns:xlink="http://www.w3.org/1999/xlink">
    <!-- Generator: Sketch 48.2 (47327) - http://www.bohemiancoding.com/sketch -->
    <title>Fill 20</title>
    <desc>Created with Sketch.</desc>
    <defs></defs>
    <g id="Opération-2" stroke="none" stroke-width="1" fill="none" fill-rule="evenodd" transform="translate(-150.000000, -1180.000000)">
        <g id="Second-Page" transform="translate(-440.000000, 204.000000)" fill="#FF384C">
            <g id="Group-5" transform="translate(590.000000, 918.000000)">
                <g id="Group-9" transform="translate(0.000000, 58.000000)">
                    <path d="M228.367813,1.25944994 C212.485548,3.04481783 189.975916,6.53764663 164.851759,13.3674903 C-15.8496605,62.5008145 -60.5632459,301.253192 93.9669052,406.875556 C115.357885,421.489604 139.65606,432.5459 166.919965,437.096965 C198.905625,442.440085 231.75629,437.382624 261.472126,424.417607 C320.37699,398.727787 457.867201,324.07344 420.730536,199.234025 C414.298283,177.608351 408.932653,155.684034 404.464546,133.571441 C395.827507,90.8005185 369.077402,22.1060546 286.225567,3.79142621 C267.253999,-0.409057498 247.677578,-0.908960506 228.367813,1.25944994" id="Fill-20"></path>
                </g>
            </g>
        </g>
    </g>
</svg>