<?xml version="1.0" encoding="utf-8"?>
<!-- Generator: Adobe Illustrator 21.1.0, SVG Export Plug-In . SVG Version: 6.00 Build 0)  -->
<svg version="1.1" id="Calque_1" xmlns="http://www.w3.org/2000/svg" xmlns:xlink="http://www.w3.org/1999/xlink" x="0px" y="0px"
	 viewBox="0 0 720 610" style="enable-background:new 0 0 720 610;" xml:space="preserve">
<style type="text/css">
	.st0{fill:#7AAFED;}
</style>
<title>social_huge_insta</title>
<path class="st0" d="M288.2,327.4c-4.9-21.9-23-36.5-45.5-36.7c-15.6-0.1-31.1,0-46.6,0c-15.1,0-30.2-0.1-45.3,0
	c-3.8-0.1-7.5,0.3-11.2,1c-22,4.9-36.6,23.1-36.7,45.9c-0.1,30.8-0.1,61.7,0,92.5c0,3.6,0.4,7.1,1.1,10.6
	c5,21.9,23.1,36.3,45.8,36.4c30.8,0.1,61.7,0.1,92.5,0c3.4,0,6.9-0.3,10.3-1c22-4.9,36.6-23.1,36.7-45.9c0.1-30.8,0.1-61.7,0-92.5
	C289.2,334.2,288.9,330.8,288.2,327.4z M195.9,446.1c-34.1-0.1-62.2-28.3-62-62.4c0.1-34.3,28-62,62.4-61.9s62,28,61.9,62.4
	C258,418.4,230.1,446.2,195.9,446.1L195.9,446.1z M257.1,332.2c-5.2,0-9.3-4.2-9.3-9.4c0-5.2,4.2-9.3,9.4-9.3h0.2
	c5.2,0.1,9.3,4.3,9.2,9.5C266.6,328.1,262.3,332.3,257.1,332.2L257.1,332.2z"/>
<path class="st0" d="M197.2,344.1c-22.1,0.1-40,18.1-39.9,40.2c0.1,22.1,18.1,40,40.2,39.9c22-0.1,39.9-17.9,39.9-39.9V384
	C237.3,361.9,219.3,344,197.2,344.1z"/>
<path class="st0" d="M0,0v610h720V0H0z M309.9,384.3v45.3c-0.1,30.1-17.6,55.1-46,64.7c-7.2,2.3-14.7,3.5-22.2,3.5
	c-30.4,0.4-60.8,0.2-91.2,0.1c-32.7,0-59.3-20.9-66.7-52.8c-1.1-5.2-1.7-10.4-1.6-15.7c-0.2-30.3-0.1-60.6-0.1-90.9
	c0-32.8,20.8-59.2,52.7-66.8c4.9-1.1,10-1.7,15.1-1.6c30.7-0.1,61.5-0.2,92.2,0c32.4,0.1,59.1,21.3,66.3,52.9
	c1.1,5.2,1.6,10.4,1.5,15.7C310.1,353.9,309.9,369.1,309.9,384.3z"/>
</svg>
