<?xml version="1.0" encoding="utf-8"?>
<!-- Generator: Adobe Illustrator 21.1.0, SVG Export Plug-In . SVG Version: 6.00 Build 0)  -->
<svg version="1.1" id="Calque_1" xmlns="http://www.w3.org/2000/svg" xmlns:xlink="http://www.w3.org/1999/xlink" x="0px" y="0px"
	 viewBox="0 0 720 610" style="enable-background:new 0 0 720 610;" xml:space="preserve">
<style type="text/css">
	.st0{fill:#7AAFED;}
</style>
<title>social_huge_insta</title>
<path class="st0" d="M288.2,327.4c-4.9-21.9-23-36.5-45.5-36.7c-15.6-0.1-31.1,0-46.6,0c-15.1,0-30.2-0.1-45.3,0
	c-3.8-0.1-7.5,0.3-11.2,1c-22,4.9-36.6,23.1-36.7,45.9c-0.1,30.8-0.1,61.7,0,92.5c0,3.6,0.4,7.1,1.1,10.6
	c5,21.9,23.1,36.3,45.8,36.4c30.8,0.1,61.7,0.1,92.5,0c3.4,0,6.9-0.3,10.3-1c22-4.9,36.6-23.1,36.7-45.9c0.1-30.8,0.1-61.7,0-92.5
	C289.2,334.2,288.9,330.8,288.2,327.4z M195.9,446.1c-34.1-0.1-62.2-28.3-62-62.4c0.1-34.3,28-62,62.4-61.9s62,28,61.9,62.4
	C258,418.4,230.1,446.2,195.9,446.1L195.9,446.1z M257.1,332.2c-5.2,0-9.3-4.2-9.3-9.4c0-5.2,4.2-9.3,9.4-9.3h0.2
	c5.2,0.1,9.3,4.3,9.2,9.5C266.6,328.1,262.3,332.3,257.1,332.2L257.1,332.2z"/>
<path class="st0" d="M197.2,344.1c-22.1,0.1-40,18.1-39.9,40.2c0.1,22.1,18.1,40,40.2,39.9c22-0.1,39.9-17.9,39.9-39.9V384
	C237.3,361.9,219.3,344,197.2,344.1z"/>
<path class="st0" d="M-2-1.7v613.4h724V-1.7H-2z M309.6,384.7v45.6c-0.1,30.3-17.7,55.4-46.3,65.1c-7.2,2.3-14.8,3.5-22.3,3.5
	c-30.6,0.4-61.1,0.2-91.7,0.1c-32.9,0-59.6-21-67.1-53.1c-1.1-5.2-1.7-10.5-1.6-15.8c-0.2-30.5-0.1-60.9-0.1-91.4
	c0-33,20.9-59.5,53-67.2c4.9-1.1,10.1-1.7,15.2-1.6c30.9-0.1,61.8-0.2,92.7,0c32.6,0.1,59.4,21.4,66.7,53.2
	c1.1,5.2,1.6,10.5,1.5,15.8C309.8,354.2,309.6,369.5,309.6,384.7z"/>
</svg>
