<svg id="Calque_1" data-name="Calque 1" xmlns="http://www.w3.org/2000/svg" viewBox="0 0 720 610"><defs><style>.cls-1{fill:#678faf;}</style></defs><title>social_huge_insta</title><path class="cls-1" d="M288.16,327.43c-4.88-21.91-23-36.51-45.54-36.68-15.55-.08-31.08,0-46.62,0-15.1,0-30.2-.07-45.3,0a54.13,54.13,0,0,0-11.23,1c-22,4.88-36.62,23.1-36.68,45.85q-.13,46.27,0,92.54a48.2,48.2,0,0,0,1.12,10.57c5,21.91,23.12,36.31,45.77,36.37q46.27.13,92.54,0a48.11,48.11,0,0,0,10.26-1c22-4.9,36.61-23.11,36.68-45.86q.13-46.27,0-92.54A48.12,48.12,0,0,0,288.16,327.43ZM195.85,446.08c-34.11-.11-62.18-28.27-62-62.36a62.14,62.14,0,1,1,62,62.36Zm61.27-113.9a9.37,9.37,0,0,1,.1-18.74h.17a9.37,9.37,0,0,1-.27,18.74Z"/><path class="cls-1" d="M197.17,344.07a40.09,40.09,0,1,0,40.24,40.24V384A40.09,40.09,0,0,0,197.17,344.07Z"/><path class="cls-1" d="M0,0V610H720V0ZM309.94,384.32v45.3c-.07,30.06-17.58,55.12-46,64.68a73.54,73.54,0,0,1-22.21,3.47c-30.41.38-60.83.19-91.25.15-32.74,0-59.26-20.92-66.72-52.76a70.87,70.87,0,0,1-1.6-15.71c-.15-30.31-.1-60.62-.06-90.93,0-32.79,20.79-59.2,52.69-66.78a67,67,0,0,1,15.06-1.62q46.11-.22,92.22-.05c32.41.09,59.1,21.33,66.29,52.91a75.66,75.66,0,0,1,1.55,15.72C310.06,353.9,309.94,369.11,309.94,384.32Z"/></svg>