<?xml version="1.0" encoding="UTF-8"?>
<svg width="427px" height="447px" viewBox="0 0 427 447" version="1.1" xmlns="http://www.w3.org/2000/svg" xmlns:xlink="http://www.w3.org/1999/xlink">
    <!-- Generator: Sketch 48.2 (47327) - http://www.bohemiancoding.com/sketch -->
    <title>Fill 19</title>
    <desc>Created with Sketch.</desc>
    <defs></defs>
    <g id="Opération-2" stroke="none" stroke-width="1" fill="none" fill-rule="evenodd" transform="translate(-949.000000, -1778.000000)">
        <g id="Second-Page" transform="translate(-440.000000, 204.000000)" fill="#FFC258">
            <g id="Group-5" transform="translate(349.000000, 825.000000)">
                <g id="Group-7" transform="translate(1040.000000, 749.000000)">
                    <path d="M228.364176,1.28166758 C212.477589,3.09850625 189.971157,6.65824248 164.849029,13.6087067 C-15.8472496,63.5876145 -60.5637022,306.510564 93.9652089,413.96812 C115.3588,428.840846 139.654098,440.085176 166.918705,444.72234 C198.899887,450.157011 231.744301,445.007541 261.4686,431.819616 C320.376377,405.676153 457.869458,329.728072 420.729686,202.713092 C414.297048,180.71033 408.93045,158.401242 404.458284,135.896737 C395.825965,92.3823948 369.076177,22.4974842 286.221514,3.85376186 C267.251213,-0.413696404 247.67769,-0.926002656 228.364176,1.28166758 L248.820313,77.3671875" id="Fill-19"></path>
                </g>
            </g>
        </g>
    </g>
</svg>